<svg xmlns="http://www.w3.org/2000/svg" version="1.1" xmlns:xlink="http://www.w3.org/1999/xlink" xmlns:svgjs="http://svgjs.dev/svgjs" width="1500" height="321" viewBox="0 0 1500 321"><g transform="matrix(1,0,0,1,-0.9090909090909918,-0.5837503590903736)"><svg viewBox="0 0 396 85" data-background-color="#ffffff" preserveAspectRatio="xMidYMid meet" height="321" width="1500" xmlns="http://www.w3.org/2000/svg" xmlns:xlink="http://www.w3.org/1999/xlink"><g id="tight-bounds" transform="matrix(1,0,0,1,0.2400000000000091,0.1545756402575762)"><svg viewBox="0 0 395.52 84.69084871948485" height="84.69084871948485" width="395.52"><g><svg viewBox="0 0 527.8545230907206 113.02702154371975" height="84.69084871948485" width="395.52"><g transform="matrix(1,0,0,1,0,15.620955944175456)"><svg viewBox="0 0 395.52 81.78510965536884" height="81.78510965536884" width="395.52"><g id="textblocktransform"><svg viewBox="0 0 395.52 81.78510965536884" height="81.78510965536884" width="395.52" id="textblock"><g><svg viewBox="0 0 395.52 81.78510965536884" height="81.78510965536884" width="395.52"><g transform="matrix(1,0,0,1,0,0)"><svg width="395.52" viewBox="6.15 -35.55 175.54 36.3" height="81.78510965536884" data-palette-color="#336a86"><path d="M24.05-12.35L32.9 0 6.15 0 6.15-34.8 19.7-34.8Q24.05-34.8 26.8-33.25L26.8-33.25Q29.5-31.75 31-29.15 32.5-26.55 32.5-23.4L32.5-23.4Q32.5-19.5 30.1-16.43 27.7-13.35 24.05-12.35L24.05-12.35ZM19.75-32.95L9.3-32.95 22.9-13.95Q26.25-14.65 28.45-17.3 30.65-19.95 30.65-23.4L30.65-23.4Q30.65-26.15 29.3-28.4 27.95-30.65 25.5-31.85L25.5-31.85Q23.3-32.95 19.75-32.95L19.75-32.95ZM20.85-13.8L8-31.75 8-13.8 20.85-13.8ZM8-11.95L8-1.85 29.4-1.85 22.1-12 20.55-11.95 8-11.95ZM55.5-35.55L71.9 0 39.1 0 55.5-35.55ZM55.5-31.15L42-1.85 69-1.85 55.5-31.15ZM93.4 0L91.59 0 91.59-26 78.45-26 78.45-34.8 106.55-34.8 106.55-26 93.4-26 93.4 0ZM129.49 0.75Q125.69 0.75 122.47-1.15 119.24-3.05 117.34-6.28 115.44-9.5 115.44-13.3L115.44-13.3 115.44-34.8 143.54-34.8 143.54-13.3Q143.54-9.5 141.64-6.28 139.74-3.05 136.52-1.15 133.29 0.75 129.49 0.75L129.49 0.75ZM157.04-8.85L181.69-8.85 181.69 0 155.19 0 155.19-34.8 157.04-34.8 157.04-8.85Z" opacity="1" transform="matrix(1,0,0,1,0,0)" fill="#336a86" class="wordmark-text-0" data-fill-palette-color="primary" id="text-0"></path></svg></g></svg></g></svg></g></svg></g><g transform="matrix(1,0,0,1,414.82750154700085,0)"><svg viewBox="0 0 113.02702154371975 113.02702154371975" height="113.02702154371975" width="113.02702154371975"><g data-palette-color="#283132"><rect width="30.894052555283398" height="113.02702154371975" fill="#283132" stroke="transparent" data-fill-palette-color="accent" x="0" fill-opacity="1"></rect><rect width="30.894052555283398" height="113.02702154371975" fill="#283132" stroke="transparent" data-fill-palette-color="accent" x="37.67567384790658" fill-opacity="0.75"></rect><rect width="30.894052555283398" height="113.02702154371975" fill="#283132" stroke="transparent" data-fill-palette-color="accent" x="75.35134769581316" fill-opacity="0.5"></rect></g></svg></g></svg></g><defs></defs></svg><rect width="395.52" height="84.69084871948485" fill="none" stroke="none" visibility="hidden"></rect></g></svg></g></svg>